<svg width="165" height="61" viewBox="0 0 165 61" fill="none" xmlns="http://www.w3.org/2000/svg">
<g clip-path="url(#clip0_199_358)">
<path d="M56.6208 0H4.93154C2.20792 0 0 2.18133 0 4.87213V56.1279C0 58.8187 2.20792 61 4.93154 61H56.6208C59.3445 61 61.5524 58.8187 61.5524 56.1279V4.87213C61.5524 2.18133 59.3445 0 56.6208 0Z" fill="#FD0073"/>
<path d="M20.8759 46.0845C18.5565 46.0845 16.624 45.9298 15.0785 45.6205C13.5329 45.3111 12.2764 44.8046 11.3089 44.1009C10.3298 43.3793 9.57337 42.4027 9.12412 41.2805C8.63368 40.1077 8.29979 38.639 8.12246 36.8746C7.94512 35.1102 7.85609 33.01 7.85535 30.5742C7.85535 28.1368 7.94438 26.0367 8.12246 24.2737C8.30053 22.5108 8.63442 21.0418 9.12412 19.8667C9.57368 18.7447 10.3301 17.7682 11.3089 17.0463C12.2734 16.3419 13.53 15.8354 15.0785 15.5268C16.627 15.2181 18.5594 15.0638 20.8759 15.0638C21.7663 15.0638 22.6878 15.0932 23.6405 15.1518C24.5932 15.2104 25.5151 15.2988 26.4062 15.4168C27.1741 15.5098 27.9343 15.6568 28.6811 15.8566V21.3643C27.7581 21.2771 26.9178 21.1964 26.1602 21.1224C25.4027 21.0484 24.7412 21.0044 24.1758 20.9904C23.6119 20.9765 23.1363 20.9692 22.749 20.9685C21.6247 20.9567 20.5007 21.0081 19.3823 21.1224C18.5045 21.2257 17.813 21.4537 17.3077 21.8063C16.8024 22.1589 16.4315 22.6801 16.1948 23.3699C15.9577 24.0593 15.8008 24.9862 15.7262 26.1452C15.6516 27.3041 15.6149 28.7841 15.6149 30.5742C15.6149 32.3335 15.652 33.8021 15.7262 34.9801C15.8004 36.1581 15.9566 37.0978 16.1948 37.7993C16.4329 38.5045 16.8039 39.0261 17.3077 39.364C17.8115 39.7019 18.5031 39.9218 19.3823 40.0237C20.5006 40.1395 21.6247 40.1913 22.749 40.1788C23.6705 40.1788 24.7112 40.1421 25.8709 40.0688C27.0306 39.9955 28.0267 39.9002 28.8592 39.7829V45.4225C28.2047 45.5413 27.4168 45.6513 26.4952 45.7524C25.5737 45.8536 24.6295 45.9342 23.6627 45.9943C22.6967 46.0537 21.7677 46.0837 20.8759 46.0845Z" fill="white"/>
<path d="M33.9877 42.0327V15.4169H41.7484V39.562H53.7005V45.7316H37.7306C37.2389 45.7316 36.7521 45.6359 36.298 45.45C35.8438 45.2641 35.4311 44.9916 35.0835 44.6481C34.736 44.3047 34.4603 43.8969 34.2723 43.4481C34.0842 42.9994 33.9875 42.5184 33.9877 42.0327Z" fill="white"/>
<path d="M83.9608 46.0846C81.6421 46.0846 79.7104 45.9299 78.1656 45.6206C76.6208 45.3112 75.3654 44.8051 74.3993 44.1021C73.4214 43.3821 72.6651 42.408 72.2146 41.2883C71.7249 40.1155 71.391 38.6476 71.2129 36.8846C71.0348 35.1217 70.9458 33.0226 70.9458 30.5875C70.9458 28.1508 71.0348 26.0518 71.2129 24.2903C71.391 22.5288 71.7249 21.0606 72.2146 19.8855C72.6639 18.7639 73.4204 17.7881 74.3993 17.0673C75.3639 16.3622 76.6193 15.8556 78.1656 15.5478C79.7119 15.2399 81.6436 15.0856 83.9608 15.0848C84.8512 15.0848 85.7723 15.1145 86.7243 15.1739C87.6762 15.2333 88.5974 15.3212 89.4878 15.4378C90.2553 15.5307 91.0152 15.6777 91.7615 15.8776V21.382C90.84 21.2948 90.0005 21.2141 89.2429 21.1401C88.4853 21.0661 87.8242 21.0221 87.2596 21.0081C86.6957 20.9942 86.2201 20.9869 85.8328 20.9861C84.7093 20.975 83.586 21.0264 82.4683 21.1401C81.5898 21.2449 80.8987 21.4729 80.3949 21.824C79.8911 22.1751 79.5201 22.696 79.2819 23.3865C79.0452 24.077 78.8894 25.0021 78.8144 26.1618C78.7395 27.3214 78.7024 28.7967 78.7031 30.5875C78.7031 32.3467 78.7402 33.8128 78.8144 34.9857C78.8886 36.1585 79.0445 37.0979 79.2819 37.8038C79.5201 38.509 79.8911 39.0302 80.3949 39.3674C80.8987 39.7046 81.5898 39.9245 82.4683 40.0271C83.5859 40.1424 84.7092 40.1942 85.8328 40.1822C86.7543 40.1822 87.7931 40.1455 88.9491 40.0722C90.1051 39.9989 91.1008 39.9033 91.9363 39.7852V45.4227C91.283 45.5414 90.4894 45.6503 89.5746 45.7525C88.6597 45.8548 87.7092 45.935 86.7432 45.9944C85.7771 46.0538 84.8523 46.0846 83.9608 46.0846Z" fill="white"/>
<path d="M96.6653 45.7315V13.0099H103.886V45.7315H96.6653Z" fill="white"/>
<path d="M109.325 18.6902V13.0099H116.681V18.6902H109.325ZM109.414 45.7315V23.2709H116.636V45.7315H109.414Z" fill="white"/>
<path d="M131.304 46.0845C129.402 46.0845 127.844 45.9155 126.629 45.5776C125.415 45.2397 124.45 44.7551 123.736 44.124C123.018 43.4854 122.481 42.6733 122.178 41.7676C121.83 40.7196 121.62 39.6316 121.553 38.5305C121.466 37.3122 121.421 35.9693 121.42 34.5018C121.42 33.0628 121.464 31.7434 121.553 30.5434C121.621 29.4388 121.846 28.3491 122.221 27.3063C122.545 26.395 123.082 25.5722 123.789 24.9049C124.488 24.2591 125.439 23.7672 126.643 23.4293C127.846 23.0913 129.384 22.9224 131.256 22.9224C132.443 22.9224 133.639 22.981 134.844 23.0983C135.932 23.1981 137.01 23.3748 138.072 23.6272V28.5994C137.478 28.5114 136.713 28.4381 135.776 28.3795C134.839 28.3208 133.969 28.2915 133.168 28.2915C132.129 28.2915 131.313 28.3721 130.72 28.5334C130.126 28.6947 129.681 28.9879 129.384 29.413C129.087 29.8389 128.887 30.462 128.782 31.2823C128.665 32.3499 128.613 33.4236 128.626 34.4974C128.613 35.5785 128.665 36.6594 128.782 37.7345C128.886 38.5701 129.087 39.2013 129.384 39.6279C129.682 40.0545 130.142 40.3404 130.765 40.4856C131.39 40.634 132.207 40.7055 133.214 40.7055C133.927 40.7055 134.737 40.6765 135.643 40.6186C136.55 40.5607 137.419 40.4874 138.251 40.3987V45.3786C137.147 45.6032 136.033 45.7724 134.912 45.8855C133.714 46.015 132.509 46.0814 131.304 46.0845Z" fill="white"/>
<path d="M142.802 45.7315V13.0099H149.934V31.8596H151.316L157.245 23.2709H164.868L157.156 34.0169L165.001 45.7315H157.066L151.316 37.232H149.934V45.7315H142.802Z" fill="white"/>
</g>
<defs>
<clipPath id="clip0_199_358">
<rect width="165" height="61" fill="white"/>
</clipPath>
</defs>
</svg>
