<svg width="30" height="30" viewBox="0 0 30 30" fill="none" xmlns="http://www.w3.org/2000/svg">
<g clip-path="url(#clip0_1070_57)">
<path d="M4.39524 25.605C2.96259 24.2213 1.81985 22.5661 1.03372 20.7361C0.247585 18.906 -0.166208 16.9377 -0.183516 14.946C-0.200823 12.9543 0.178703 10.9791 0.932916 9.13569C1.68713 7.29224 2.80093 5.61746 4.20932 4.20907C5.61771 2.80068 7.29249 1.68689 9.13593 0.932672C10.9794 0.178458 12.9546 -0.201067 14.9463 -0.18376C16.9379 -0.166453 18.9062 0.247341 20.7363 1.03348C22.5664 1.81961 24.2215 2.96234 25.6052 4.395C28.3376 7.22403 29.8495 11.0131 29.8154 14.946C29.7812 18.879 28.2036 22.6412 25.4225 25.4223C22.6414 28.2034 18.8792 29.7809 14.9463 29.8151C11.0133 29.8493 7.22427 28.3374 4.39524 25.605ZM6.51024 23.49C8.76193 25.7417 11.8159 27.0067 15.0002 27.0067C18.1846 27.0067 21.2386 25.7417 23.4902 23.49C25.7419 21.2383 27.0069 18.1844 27.0069 15C27.0069 11.8156 25.7419 8.76168 23.4902 6.51C21.2386 4.25831 18.1846 2.99332 15.0002 2.99332C11.8159 2.99332 8.76193 4.25831 6.51024 6.51C4.25855 8.76168 2.99357 11.8156 2.99357 15C2.99357 18.1844 4.25855 21.2383 6.51024 23.49ZM21.3602 10.755L17.1152 15L21.3602 19.245L19.2452 21.36L15.0002 17.115L10.7552 21.36L8.64024 19.245L12.8852 15L8.64024 10.755L10.7552 8.64L15.0002 12.885L19.2452 8.64L21.3602 10.755Z" fill="white"/>
</g>
<defs>
<clipPath id="clip0_1070_57">
<rect width="30" height="30" fill="white"/>
</clipPath>
</defs>
</svg>
