<svg width="70" height="70" viewBox="0 0 70 70" fill="none" xmlns="http://www.w3.org/2000/svg">
<g clip-path="url(#clip0_357_52)">
<path fill-rule="evenodd" clip-rule="evenodd" d="M20.5705 0.21C24.3027 0.0381818 25.4927 0 35 0C44.5073 0 45.6973 0.0413636 49.4264 0.21C53.1555 0.378636 55.7009 0.973636 57.9282 1.83591C60.2605 2.71727 62.3764 4.095 64.1264 5.87682C65.9082 7.62364 67.2827 9.73636 68.1609 12.0718C69.0264 14.2991 69.6182 16.8445 69.79 20.5673C69.9618 24.3059 70 25.4959 70 35C70 44.5073 69.9586 45.6973 69.79 49.4295C69.6214 53.1523 69.0264 55.6977 68.1609 57.925C67.2827 60.2608 65.9059 62.377 64.1264 64.1264C62.3764 65.9082 60.2605 67.2827 57.9282 68.1609C55.7009 69.0264 53.1555 69.6182 49.4327 69.79C45.6973 69.9618 44.5073 70 35 70C25.4927 70 24.3027 69.9586 20.5705 69.79C16.8477 69.6214 14.3023 69.0264 12.075 68.1609C9.73929 67.2826 7.62306 65.9058 5.87364 64.1264C4.09303 62.3785 2.71509 60.2633 1.83591 57.9282C0.973636 55.7009 0.381818 53.1555 0.21 49.4327C0.0381818 45.6941 0 44.5041 0 35C0 25.4927 0.0413636 24.3027 0.21 20.5736C0.378636 16.8445 0.973636 14.2991 1.83591 12.0718C2.71639 9.73662 4.09538 7.62145 5.87682 5.87364C7.62376 4.09341 9.73787 2.7155 12.0718 1.83591C14.2991 0.973636 16.8445 0.381818 20.5673 0.21H20.5705ZM49.1432 6.51C45.4523 6.34136 44.345 6.30636 35 6.30636C25.655 6.30636 24.5477 6.34136 20.8568 6.51C17.4427 6.66591 15.5909 7.23545 14.3564 7.71591C12.7241 8.35227 11.5564 9.10636 10.3314 10.3314C9.17014 11.4611 8.27648 12.8364 7.71591 14.3564C7.23545 15.5909 6.66591 17.4427 6.51 20.8568C6.34136 24.5477 6.30636 25.655 6.30636 35C6.30636 44.345 6.34136 45.4523 6.51 49.1432C6.66591 52.5573 7.23545 54.4091 7.71591 55.6436C8.27591 57.1614 9.17 58.5391 10.3314 59.6686C11.4609 60.83 12.8386 61.7241 14.3564 62.2841C15.5909 62.7645 17.4427 63.3341 20.8568 63.49C24.5477 63.6586 25.6518 63.6936 35 63.6936C44.3482 63.6936 45.4523 63.6586 49.1432 63.49C52.5573 63.3341 54.4091 62.7645 55.6436 62.2841C57.2759 61.6477 58.4436 60.8936 59.6686 59.6686C60.83 58.5391 61.7241 57.1614 62.2841 55.6436C62.7645 54.4091 63.3341 52.5573 63.49 49.1432C63.6586 45.4523 63.6936 44.345 63.6936 35C63.6936 25.655 63.6586 24.5477 63.49 20.8568C63.3341 17.4427 62.7645 15.5909 62.2841 14.3564C61.6477 12.7241 60.8936 11.5564 59.6686 10.3314C58.5389 9.17023 57.1636 8.27658 55.6436 7.71591C54.4091 7.23545 52.5573 6.66591 49.1432 6.51ZM30.5295 45.7895C33.0262 46.8288 35.8062 46.9691 38.3948 46.1864C40.9833 45.4037 43.2199 43.7466 44.7224 41.498C46.2249 39.2495 46.9002 36.5491 46.6329 33.8581C46.3656 31.167 45.1723 28.6522 43.2568 26.7432C42.0358 25.5229 40.5593 24.5885 38.9338 24.0073C37.3083 23.4261 35.5741 23.2125 33.8561 23.382C32.1382 23.5514 30.4791 24.0997 28.9985 24.9872C27.5178 25.8748 26.2524 27.0796 25.2932 28.515C24.3341 29.9503 23.7051 31.5805 23.4516 33.2881C23.1981 34.9957 23.3264 36.7382 23.8272 38.3903C24.328 40.0424 25.1888 41.5629 26.3477 42.8423C27.5067 44.1217 28.9349 45.1283 30.5295 45.7895ZM22.2791 22.2791C23.9496 20.6086 25.9328 19.2834 28.1155 18.3793C30.2982 17.4752 32.6375 17.0099 35 17.0099C37.3625 17.0099 39.7019 17.4752 41.8845 18.3793C44.0672 19.2834 46.0504 20.6086 47.7209 22.2791C49.3914 23.9496 50.7166 25.9328 51.6207 28.1155C52.5248 30.2982 52.9901 32.6375 52.9901 35C52.9901 37.3625 52.5248 39.7019 51.6207 41.8845C50.7166 44.0672 49.3914 46.0504 47.7209 47.7209C44.3471 51.0947 39.7713 52.9901 35 52.9901C30.2287 52.9901 25.6529 51.0947 22.2791 47.7209C18.9053 44.3471 17.0099 39.7713 17.0099 35C17.0099 30.2287 18.9053 25.6529 22.2791 22.2791ZM56.98 19.6891C57.394 19.2986 57.7254 18.829 57.9546 18.3081C58.1838 17.7872 58.3062 17.2256 58.3145 16.6566C58.3228 16.0876 58.2168 15.5227 58.0029 14.9953C57.789 14.468 57.4714 13.9889 57.069 13.5865C56.6666 13.1841 56.1875 12.8665 55.6602 12.6526C55.1328 12.4386 54.5679 12.3327 53.9989 12.3409C53.4298 12.3492 52.8682 12.4716 52.3474 12.7009C51.8265 12.9301 51.3569 13.2615 50.9664 13.6755C50.2069 14.4805 49.7911 15.5499 49.8072 16.6566C49.8234 17.7633 50.2702 18.8201 51.0528 19.6027C51.8354 20.3853 52.8922 20.8321 53.9989 20.8482C55.1055 20.8644 56.1749 20.4486 56.98 19.6891Z" fill="#91F5FF"/>
</g>
<rect x="0.5" y="0.5" width="69" height="69" stroke="black"/>
<defs>
<clipPath id="clip0_357_52">
<rect width="70" height="70" fill="white"/>
</clipPath>
</defs>
</svg>
