<svg width="165" height="61" viewBox="0 0 165 61" fill="none" xmlns="http://www.w3.org/2000/svg">
<g clip-path="url(#clip0_91_1076)">
<path d="M56.6208 0H4.93154C2.20792 0 0 2.18133 0 4.87213V56.1279C0 58.8187 2.20792 61 4.93154 61H56.6208C59.3445 61 61.5524 58.8187 61.5524 56.1279V4.87213C61.5524 2.18133 59.3445 0 56.6208 0Z" fill="#FD0073"/>
<path d="M20.8759 46.0846C18.5565 46.0846 16.624 45.9299 15.0785 45.6206C13.5329 45.3113 12.2764 44.8047 11.3089 44.101C10.3298 43.3794 9.57337 42.4028 9.12412 41.2806C8.63368 40.1078 8.29979 38.6392 8.12246 36.8747C7.94512 35.1103 7.85609 33.0102 7.85535 30.5743C7.85535 28.1369 7.94438 26.0368 8.12246 24.2738C8.30053 22.5109 8.63442 21.0419 9.12412 19.8668C9.57368 18.7448 10.3301 17.7683 11.3089 17.0465C12.2734 16.342 13.53 15.8355 15.0785 15.5269C16.627 15.2183 18.5594 15.064 20.8759 15.064C21.7663 15.064 22.6878 15.0933 23.6405 15.1519C24.5932 15.2106 25.5151 15.2989 26.4062 15.4169C27.1741 15.51 27.9343 15.6569 28.6811 15.8567V21.3644C27.7581 21.2772 26.9178 21.1965 26.1602 21.1225C25.4027 21.0485 24.7412 21.0045 24.1758 20.9906C23.6119 20.9766 23.1363 20.9693 22.749 20.9686C21.6247 20.9569 20.5007 21.0083 19.3823 21.1225C18.5045 21.2259 17.813 21.4538 17.3077 21.8064C16.8024 22.159 16.4315 22.6802 16.1948 23.37C15.9577 24.0594 15.8008 24.9863 15.7262 26.1453C15.6516 27.3042 15.6149 28.7842 15.6149 30.5743C15.6149 32.3336 15.652 33.8022 15.7262 34.9802C15.8004 36.1582 15.9566 37.0979 16.1948 37.7995C16.4329 38.5046 16.8039 39.0262 17.3077 39.3641C17.8115 39.7021 18.5031 39.922 19.3823 40.0239C20.5006 40.1397 21.6247 40.1914 22.749 40.1789C23.6705 40.1789 24.7112 40.1422 25.8709 40.0689C27.0306 39.9956 28.0267 39.9003 28.8592 39.7831V45.4227C28.2047 45.5414 27.4168 45.6514 26.4952 45.7525C25.5737 45.8537 24.6295 45.9343 23.6627 45.9944C22.6967 46.0538 21.7677 46.0839 20.8759 46.0846Z" fill="white"/>
<path d="M33.9877 42.0326V15.4167H41.7484V39.5619H53.7005V45.7315H37.7306C37.2389 45.7315 36.7521 45.6358 36.298 45.4499C35.8438 45.264 35.4311 44.9915 35.0835 44.648C34.736 44.3045 34.4603 43.8968 34.2723 43.448C34.0842 42.9992 33.9875 42.5183 33.9877 42.0326Z" fill="white"/>
<path d="M83.9608 46.0845C81.6421 46.0845 79.7104 45.9298 78.1656 45.6205C76.6208 45.3111 75.3654 44.805 74.3993 44.102C73.4214 43.382 72.6651 42.4079 72.2146 41.2882C71.7249 40.1153 71.391 38.6474 71.2129 36.8845C71.0348 35.1215 70.9458 33.0225 70.9458 30.5873C70.9458 28.1507 71.0348 26.0517 71.2129 24.2902C71.391 22.5287 71.7249 21.0604 72.2146 19.8854C72.6639 18.7638 73.4204 17.788 74.3993 17.0672C75.3639 16.362 76.6193 15.8555 78.1656 15.5476C79.7119 15.2398 81.6436 15.0854 83.9608 15.0847C84.8512 15.0847 85.7723 15.1144 86.7243 15.1738C87.6762 15.2332 88.5974 15.3211 89.4878 15.4377C90.2553 15.5306 91.0152 15.6776 91.7615 15.8775V21.3819C90.84 21.2946 90.0005 21.214 89.2429 21.14C88.4853 21.0659 87.8242 21.0219 87.2596 21.008C86.6957 20.9941 86.2201 20.9868 85.8328 20.986C84.7093 20.9749 83.586 21.0263 82.4683 21.14C81.5898 21.2448 80.8987 21.4728 80.3949 21.8239C79.8911 22.175 79.5201 22.6958 79.2819 23.3864C79.0452 24.0769 78.8894 25.002 78.8144 26.1616C78.7395 27.3213 78.7024 28.7965 78.7031 30.5873C78.7031 32.3466 78.7402 33.8127 78.8144 34.9856C78.8886 36.1584 79.0445 37.0978 79.2819 37.8037C79.5201 38.5089 79.8911 39.0301 80.3949 39.3673C80.8987 39.7045 81.5898 39.9244 82.4683 40.027C83.5859 40.1423 84.7092 40.194 85.8328 40.1821C86.7543 40.1821 87.7931 40.1454 88.9491 40.0721C90.1051 39.9988 91.1008 39.9031 91.9363 39.7851V45.4225C91.283 45.5413 90.4894 45.6501 89.5746 45.7524C88.6597 45.8547 87.7092 45.9349 86.7432 45.9943C85.7771 46.0537 84.8523 46.0845 83.9608 46.0845Z" fill="white"/>
<path d="M96.6653 45.7317V13.01H103.886V45.7317H96.6653Z" fill="white"/>
<path d="M109.325 18.6903V13.01H116.681V18.6903H109.325ZM109.414 45.7317V23.2711H116.636V45.7317H109.414Z" fill="white"/>
<path d="M131.304 46.0845C129.402 46.0845 127.844 45.9155 126.629 45.5776C125.415 45.2397 124.45 44.7551 123.736 44.124C123.018 43.4854 122.481 42.6733 122.178 41.7676C121.83 40.7196 121.62 39.6316 121.553 38.5305C121.466 37.3122 121.421 35.9693 121.42 34.5018C121.42 33.0628 121.464 31.7434 121.553 30.5434C121.621 29.4388 121.846 28.3491 122.221 27.3063C122.545 26.395 123.082 25.5722 123.789 24.9049C124.488 24.2591 125.439 23.7672 126.643 23.4293C127.846 23.0913 129.384 22.9224 131.256 22.9224C132.443 22.9224 133.639 22.981 134.844 23.0983C135.932 23.1981 137.01 23.3748 138.072 23.6272V28.5994C137.478 28.5114 136.713 28.4381 135.776 28.3795C134.839 28.3208 133.969 28.2915 133.168 28.2915C132.129 28.2915 131.313 28.3721 130.72 28.5334C130.126 28.6947 129.681 28.9879 129.384 29.413C129.087 29.8389 128.887 30.462 128.782 31.2823C128.665 32.3499 128.613 33.4236 128.626 34.4974C128.613 35.5785 128.665 36.6594 128.782 37.7345C128.886 38.5701 129.087 39.2013 129.384 39.6279C129.682 40.0545 130.142 40.3404 130.765 40.4856C131.39 40.634 132.207 40.7055 133.214 40.7055C133.927 40.7055 134.737 40.6765 135.643 40.6186C136.55 40.5607 137.419 40.4874 138.251 40.3987V45.3786C137.147 45.6032 136.033 45.7724 134.912 45.8855C133.714 46.015 132.509 46.0814 131.304 46.0845Z" fill="white"/>
<path d="M142.802 45.7317V13.01H149.934V31.8597H151.316L157.245 23.2711H164.868L157.156 34.017L165.001 45.7317H157.066L151.316 37.2321H149.934V45.7317H142.802Z" fill="white"/>
</g>
<defs>
<clipPath id="clip0_91_1076">
<rect width="165" height="61" fill="white"/>
</clipPath>
</defs>
</svg>
