<svg width="70" height="70" viewBox="0 0 70 70" fill="none" xmlns="http://www.w3.org/2000/svg">
<path d="M10.3409 4.32104H59.6591C62.3004 4.32086 64.8417 5.40352 66.7616 7.34692C68.6816 9.29033 69.8346 11.9471 69.9841 14.7724L70 15.3996V54.6005C70.0002 57.4303 68.9896 60.1529 67.1756 62.2097C65.3616 64.2666 62.8817 65.5018 60.2445 65.662L59.6591 65.6791H10.3409C7.69956 65.6793 5.15827 64.5966 3.23836 62.6532C1.31844 60.7098 0.16545 58.053 0.0159095 55.2278L2.21938e-08 54.6005V15.3996C-0.000172921 12.5698 1.0104 9.84726 2.82441 7.7904C4.63842 5.73353 7.11834 4.4983 9.75546 4.33809L10.3409 4.32104H59.6591H10.3409ZM65.2273 24.4499L36.1009 40.6757C35.8188 40.8327 35.5102 40.9278 35.1933 40.9553C34.8764 40.9829 34.5575 40.9422 34.2555 40.8359L33.8991 40.6757L4.77273 24.4499V54.6005C4.77278 56.0976 5.29827 57.54 6.24489 58.6413C7.19151 59.7426 8.49004 60.4223 9.88273 60.5454L10.3409 60.5659H59.6591C61.057 60.5658 62.4038 60.0023 63.4318 58.9875C64.4598 57.9726 65.0939 56.5806 65.2082 55.088L65.2273 54.6005V24.4499ZM59.6591 9.43421H10.3409C8.94349 9.43427 7.59717 9.99725 6.56921 11.0114C5.54125 12.0255 4.90681 13.4167 4.79182 14.9087L4.77273 15.3996V18.6856L35 35.525L65.2273 18.6856V15.3996C65.2272 13.9019 64.7012 12.4591 63.7539 11.3578C62.8067 10.2564 61.5073 9.57705 60.1141 9.45467L59.6591 9.43421Z" fill="#91F5FF"/>
<rect x="0.5" y="0.5" width="69" height="69" stroke="black"/>
</svg>
