<svg width="30" height="30" viewBox="0 0 30 30" fill="none" xmlns="http://www.w3.org/2000/svg">
<path d="M9 7.4745C8.60218 7.4745 8.22064 7.63254 7.93934 7.91384C7.65804 8.19515 7.5 8.57668 7.5 8.9745C7.5 9.37233 7.65804 9.75386 7.93934 10.0352C8.22064 10.3165 8.60218 10.4745 9 10.4745H21C21.3978 10.4745 21.7794 10.3165 22.0607 10.0352C22.342 9.75386 22.5 9.37233 22.5 8.9745C22.5 8.57668 22.342 8.19515 22.0607 7.91384C21.7794 7.63254 21.3978 7.4745 21 7.4745H9ZM7.5 15C7.5 14.6022 7.65804 14.2206 7.93934 13.9393C8.22064 13.658 8.60218 13.5 9 13.5H21C21.3978 13.5 21.7794 13.658 22.0607 13.9393C22.342 14.2206 22.5 14.6022 22.5 15C22.5 15.3978 22.342 15.7794 22.0607 16.0607C21.7794 16.342 21.3978 16.5 21 16.5H9C8.60218 16.5 8.22064 16.342 7.93934 16.0607C7.65804 15.7794 7.5 15.3978 7.5 15ZM9 19.5255C8.60218 19.5255 8.22064 19.6835 7.93934 19.9648C7.65804 20.2461 7.5 20.6277 7.5 21.0255C7.5 21.4233 7.65804 21.8049 7.93934 22.0862C8.22064 22.3675 8.60218 22.5255 9 22.5255H21C21.3978 22.5255 21.7794 22.3675 22.0607 22.0862C22.342 21.8049 22.5 21.4233 22.5 21.0255C22.5 20.6277 22.342 20.2461 22.0607 19.9648C21.7794 19.6835 21.3978 19.5255 21 19.5255H9Z" fill="white"/>
<path fill-rule="evenodd" clip-rule="evenodd" d="M30 15C30 23.2845 23.2845 30 15 30C6.7155 30 0 23.2845 0 15C0 6.7155 6.7155 0 15 0C23.2845 0 30 6.7155 30 15ZM27 15C27 18.1826 25.7357 21.2348 23.4853 23.4853C21.2348 25.7357 18.1826 27 15 27C11.8174 27 8.76516 25.7357 6.51472 23.4853C4.26428 21.2348 3 18.1826 3 15C3 11.8174 4.26428 8.76516 6.51472 6.51472C8.76516 4.26428 11.8174 3 15 3C18.1826 3 21.2348 4.26428 23.4853 6.51472C25.7357 8.76516 27 11.8174 27 15Z" fill="white"/>
</svg>
