<svg width="78" height="74" viewBox="0 0 78 74" fill="none" xmlns="http://www.w3.org/2000/svg">
<path d="M63.799 14.1852C60.5741 10.9439 56.7328 8.37403 52.4992 6.62538C48.2657 4.87673 43.7245 3.98432 39.1407 4.00021C19.9347 4.00021 4.28141 19.5752 4.28141 38.6851C4.28141 44.8101 5.8995 50.7601 8.92462 56.0101L4 74L22.4673 69.17C27.5678 71.935 33.3015 73.405 39.1407 73.405C58.3467 73.405 74 57.83 74 38.7201C74 29.4451 70.3769 20.7302 63.799 14.1852ZM39.1407 67.525C33.9347 67.525 28.8342 66.125 24.3668 63.5L23.3116 62.87L12.3367 65.74L15.2563 55.1001L14.5528 54.0151C11.6604 49.4195 10.1246 44.1074 10.1206 38.6851C10.1206 22.7952 23.1357 9.84519 39.1055 9.84519C46.8442 9.84519 54.1256 12.8552 59.5779 18.3152C62.2776 20.989 64.417 24.1695 65.8722 27.6721C67.3274 31.1748 68.0695 34.93 68.0553 38.7201C68.1256 54.6101 55.1105 67.525 39.1407 67.525ZM55.0402 45.9651C54.1608 45.5451 49.8693 43.4451 49.0955 43.1301C48.2864 42.8501 47.7236 42.7101 47.1256 43.5501C46.5276 44.4251 44.8744 46.3851 44.3819 46.9451C43.8894 47.5401 43.3618 47.6101 42.4824 47.1551C41.603 46.7351 38.7889 45.7901 35.4824 42.8501C32.8794 40.5401 31.1558 37.7051 30.6281 36.8301C30.1357 35.9551 30.5578 35.5001 31.0151 35.0451C31.402 34.6601 31.8945 34.0301 32.3166 33.5401C32.7387 33.0501 32.9146 32.6651 33.196 32.1051C33.4774 31.5101 33.3367 31.0201 33.1256 30.6001C32.9146 30.1801 31.1558 25.9101 30.4523 24.1602C29.7487 22.4802 29.01 22.6902 28.4824 22.6552H26.794C26.196 22.6552 25.2814 22.8652 24.4724 23.7402C23.6985 24.6151 21.4472 26.7151 21.4472 30.9851C21.4472 35.2551 24.5779 39.3851 25 39.9451C25.4221 40.5401 31.1558 49.2901 39.8794 53.0351C41.9548 53.9451 43.5729 54.4701 44.8392 54.8551C46.9146 55.5201 48.8141 55.4151 50.3266 55.2051C52.0151 54.9601 55.4975 53.1051 56.201 51.0751C56.9397 49.0451 56.9397 47.3301 56.6935 46.9451C56.4472 46.5601 55.9196 46.3851 55.0402 45.9651Z" fill="#91F5FF"/>
<rect x="0.5" y="0.5" width="77" height="73" stroke="black"/>
</svg>
